<svg width="300" height="400" viewBox="0 0 300 400" fill="none" xmlns="http://www.w3.org/2000/svg">
<rect width="300" height="400" fill="white"/>
<rect x="26" y="26" width="268" height="368" rx="24" fill="#5763B8" stroke="black" stroke-width="12"/>
<path d="M8.5 35L24.5 8H251L270 29V349L251 368.5H24.5L8.5 341V35Z" fill="#6777EF"/>
<path d="M8 242.5V37C8 20.4315 21.4315 7 38 7H240C256.569 7 270 20.4315 270 37V340C270 356.569 256.569 370 240 370H38C21.4315 370 8 356.569 8 340V279.25" stroke="black" stroke-width="12" stroke-linecap="round"/>
<line x1="76" y1="49" x2="203" y2="49" stroke="black" stroke-width="12" stroke-linecap="round"/>
<line x1="45" y1="113" x2="172" y2="113" stroke="black" stroke-width="12" stroke-linecap="round"/>
<line x1="45" y1="155" x2="234" y2="155" stroke="black" stroke-width="12" stroke-linecap="round"/>
<line x1="45" y1="194" x2="234" y2="194" stroke="black" stroke-width="12" stroke-linecap="round"/>
<line x1="45" y1="235" x2="234" y2="235" stroke="black" stroke-width="12" stroke-linecap="round"/>
<line x1="45" y1="281" x2="102" y2="281" stroke="black" stroke-width="12" stroke-linecap="round"/>
<line x1="45" y1="325" x2="102" y2="325" stroke="black" stroke-width="12" stroke-linecap="round"/>
<rect x="186" y="284" width="48" height="48" rx="24" fill="#8594FF" stroke="black" stroke-width="12"/>
</svg>
